<!-- Generated by IcoMoon.io -->
<svg version="1.1" xmlns="http://www.w3.org/2000/svg" width="48" height="48" viewBox="0 0 48 48">
<title>google</title>
<path d="M24.478 20.569v8.231h13.613c-0.553 3.534-4.116 10.35-13.613 10.35-8.194 0-14.878-6.788-14.878-15.15s6.684-15.15 14.878-15.15c4.659 0 7.781 1.987 9.563 3.703l6.516-6.272c-4.181-3.919-9.6-6.281-16.078-6.281-13.266 0-24 10.734-24 24s10.734 24 24 24c13.847 0 23.044-9.741 23.044-23.447 0-1.575-0.169-2.775-0.375-3.975l-22.669-0.009z"></path>
</svg>
